# xmcd
#
# Track frame offsets:
#	150
#	5924
#	29125
#	48149
#	62377
#	84395
#	102085
#	121621
#	137248
#	156764
#	164074
#	184587
#	187138
#	207495
#	221320
#	272716
#	293421
#	322212
#
# Disc length: 4460 seconds
#
# Revision: 1
# Processed by: cddbd v1.5.2PL0 Copyright (c) Steve Scherf et al.
# Submitted via: audiograbber 1.82.01
#
DISCID=07116a12
DTITLE=Various Artist - Control ost
DYEAR=2007
DGENRE=
TTITLE0=New Order - Exit
TTITLE1=Velvet Underground - What goes On
TTITLE2=Killers - Shadowplay
TTITLE3=Buzzcocks - Boredom (Live At The Roxy)
TTITLE4=Joy Division - Dead Souls
TTITLE5=Supersister - She Was Naked
TTITLE6=Iggy Pop - Sister Midnight
TTITLE7=Joy Division - Love Wil Tear Us Apart
TTITLE8=Sex Pistols - Problems (Live)
TTITLE9=New Order - Hypnosis
TTITLE10=David Bowie - Drive in Saturday
TTITLE11=John Cooper Clarke - Evidently Chicken Town (Live)
TTITLE12=Roxy Music - 2HB
TTITLE13=Joy Division - Transmission (Cast Version)
TTITLE14=Kraftwerk - Autobahn
TTITLE15=Joy Division - Atmosphere
TTITLE16=David Bowie - Warszawa
TTITLE17=New Order - Get Out
EXTD=
EXTT0=
EXTT1=
EXTT2=
EXTT3=
EXTT4=
EXTT5=
EXTT6=
EXTT7=
EXTT8=
EXTT9=
EXTT10=
EXTT11=
EXTT12=
EXTT13=
EXTT14=
EXTT15=
EXTT16=
EXTT17=
PLAYORDER=
